<?xml version="1.0" standalone="no"?>
<!DOCTYPE svg PUBLIC "-//W3C//DTD SVG 20010904//EN"
 "http://www.w3.org/TR/2001/REC-SVG-20010904/DTD/svg10.dtd">
<svg version="1.0" xmlns="http://www.w3.org/2000/svg"
 width="1000.000000pt" height="1000.000000pt" viewBox="0 0 1000.000000 1000.000000"
 preserveAspectRatio="xMidYMid meet">
<metadata>
Created by potrace 1.11, written by Peter Selinger 2001-2013
</metadata>
<g transform="translate(0.000000,1000.000000) scale(0.100000,-0.100000)"
fill="#000000" stroke="none">
<path d="M1859 7368 c-1 -2 -2 -170 -3 -375 -1 -205 -5 -375 -8 -379 -4 -3
-140 -6 -303 -5 l-295 0 2 -451 3 -452 267 1 266 0 4 -48 c1 -27 0 -62 -3 -78
-4 -17 -4 -33 -1 -36 5 -4 6 -117 1 -141 -1 -5 0 -13 1 -19 2 -13 2 -447 0
-460 -1 -6 -1 -14 0 -20 2 -13 2 -447 0 -460 -1 -6 -2 -12 -1 -15 1 -3 3 -107
4 -232 1 -126 4 -228 7 -228 3 0 7 -15 8 -32 2 -41 27 -195 33 -208 1 -3 3 -9
4 -15 2 -5 4 -13 5 -17 1 -5 3 -11 4 -15 9 -40 42 -130 50 -135 6 -4 7 -8 3
-8 -11 0 58 -131 106 -203 47 -70 128 -153 206 -210 31 -23 59 -46 62 -50 3
-5 10 -9 15 -9 15 -1 59 -22 65 -31 3 -5 10 -9 15 -9 5 0 25 -7 44 -15 88 -38
230 -81 290 -87 14 -2 32 -6 41 -10 9 -4 20 -6 25 -5 5 1 11 0 14 -1 3 -1 21
-3 40 -5 19 -2 35 -4 35 -5 0 -11 280 -14 1220 -14 1010 0 1173 2 1260 19 17
4 46 8 65 9 19 2 42 6 50 10 8 3 30 7 48 9 17 2 35 7 39 10 3 4 17 7 29 7 13
0 26 5 29 10 4 6 10 8 15 5 4 -2 33 4 63 14 30 11 58 17 61 14 3 -4 6 -1 6 5
0 7 5 12 11 12 5 0 35 11 65 25 30 14 59 25 64 25 6 0 10 5 10 12 0 6 3 9 6 5
4 -3 31 9 60 28 30 19 59 35 64 35 6 0 10 5 10 10 0 6 7 10 15 10 8 0 15 4 15
8 0 4 14 16 32 26 41 25 207 190 238 238 14 21 28 38 33 38 4 0 7 7 7 15 0 8
5 15 11 15 5 0 7 4 4 10 -11 18 10 10 28 -10 9 -11 14 -20 11 -20 -3 0 1 -6 8
-13 7 -8 24 -29 38 -48 42 -58 172 -183 245 -236 83 -60 175 -115 175 -105 0
4 4 1 9 -6 4 -7 15 -14 23 -16 8 -1 37 -13 64 -26 27 -13 58 -27 69 -32 32
-13 230 -66 269 -72 20 -3 53 -9 74 -13 20 -3 48 -7 62 -8 14 -1 25 -3 25 -5
0 -8 144 -11 663 -15 l592 -3 0 448 0 448 -66 4 c-36 1 -68 0 -71 -5 -2 -4 -8
-5 -13 -2 -5 3 -94 5 -197 5 -103 -1 -197 -1 -208 -1 -32 1 -149 0 -160 0 -34
-2 -377 11 -410 15 -42 6 -80 13 -80 16 0 1 -9 3 -20 4 -39 5 -135 39 -135 48
0 5 -4 7 -9 3 -5 -3 -16 2 -24 10 -9 8 -20 15 -25 15 -17 0 -98 88 -119 131
-41 83 -82 256 -67 281 3 4 0 8 -7 8 -8 0 -9 3 0 13 6 8 8 17 5 20 -6 5 -9
355 -3 382 1 6 0 15 -1 20 -2 10 -2 360 0 360 1 0 3 29 6 63 2 35 9 72 14 82
5 9 7 20 4 23 -3 3 -2 12 2 19 5 7 9 19 10 26 2 8 6 21 10 30 4 9 8 19 8 22 5
19 32 70 38 70 5 0 8 6 8 13 0 16 103 127 119 127 6 0 11 5 11 10 0 6 7 10 15
10 8 0 15 4 15 8 0 6 79 44 100 48 3 0 12 3 20 6 37 15 115 31 153 32 15 1 27
3 27 6 0 4 231 7 513 7 281 1 518 2 525 2 9 1 12 98 12 451 l0 449 -577 -4
c-318 -2 -591 -6 -608 -8 -16 -3 -52 -8 -80 -11 -57 -7 -97 -14 -140 -23 -16
-4 -39 -8 -50 -9 -19 -2 -126 -29 -153 -39 -7 -2 -14 -5 -17 -5 -3 0 -25 -9
-49 -20 -24 -10 -47 -16 -50 -13 -3 4 -6 2 -6 -4 0 -6 -14 -13 -31 -17 -17 -3
-43 -15 -58 -26 -16 -11 -31 -17 -35 -13 -3 3 -6 1 -6 -5 0 -7 -5 -12 -10 -12
-13 0 -144 -81 -148 -92 -2 -4 -7 -8 -12 -8 -23 0 -200 -177 -255 -255 -22
-31 -45 -64 -51 -72 -9 -13 -13 -11 -28 13 -87 136 -240 287 -376 371 -42 26
-201 109 -215 113 -5 1 -21 7 -35 12 -14 6 -29 11 -35 12 -5 2 -17 6 -25 9
-40 16 -119 35 -124 30 -3 -4 -6 -1 -6 6 0 8 -8 11 -20 8 -11 -3 -20 -2 -20 2
0 4 -13 7 -30 6 -16 -1 -30 1 -30 5 0 4 -19 10 -42 13 -24 2 -52 8 -62 13 -14
5 -17 4 -11 -5 6 -10 3 -11 -11 -3 -11 5 -48 12 -83 15 -35 4 -66 9 -69 11 -2
3 -13 1 -23 -5 -12 -6 -19 -6 -19 0 0 6 -408 9 -1075 8 -709 -1 -1076 1 -1079
8 -3 6 -5 5 -5 -1 -1 -6 -12 -9 -25 -7 -22 4 -24 10 -22 51 1 26 -2 53 -7 60
-5 6 -6 12 -1 12 5 0 9 41 9 90 0 50 -4 90 -8 90 -5 0 -5 5 -1 11 10 17 12
109 2 109 -5 0 -6 5 -2 12 10 16 11 188 1 188 -5 0 -5 6 -1 12 11 17 12 48 3
48 -5 0 -5 10 -1 23 5 12 7 30 5 39 -4 16 -44 17 -544 18 -296 0 -540 -1 -540
-2z m3289 -1672 c24 -5 49 -9 55 -10 189 -40 321 -133 392 -278 46 -95 49
-106 68 -238 9 -62 11 -146 3 -158 -4 -7 -3 -12 1 -12 5 0 6 -30 3 -66 -3 -36
-4 -67 -1 -69 6 -7 3 -203 -4 -215 -3 -5 -3 -10 2 -10 12 0 2 -406 -11 -440
-3 -8 -8 -28 -10 -43 -8 -49 -38 -120 -73 -172 -32 -48 -106 -113 -124 -107
-5 1 -9 -2 -9 -8 0 -5 -5 -10 -11 -10 -6 0 -25 -6 -42 -13 -48 -21 -99 -36
-138 -42 -19 -3 -45 -8 -59 -10 -14 -3 -81 -8 -149 -10 -69 -3 -127 -7 -129
-10 -3 -3 -11 0 -18 6 -8 7 -14 7 -19 -1 -3 -6 -11 -8 -16 -4 -9 5 -217 8
-244 3 -5 -1 -14 -1 -18 0 -12 2 -289 3 -302 1 -10 -2 -68 0 -165 4 -25 1 -51
-2 -57 -7 -8 -6 -13 -6 -13 0 0 5 -9 9 -20 9 -11 0 -20 -4 -20 -8 0 -5 -9 -4
-19 2 -14 7 -22 7 -26 0 -4 -6 -10 -8 -15 -5 -12 7 -590 8 -597 1 -3 -3 -13
-2 -22 2 -9 5 -27 7 -41 6 -14 -1 -43 2 -65 6 -22 5 -52 11 -66 14 -65 11
-164 92 -186 152 -6 16 -14 38 -18 49 -11 28 -18 90 -19 160 -1 33 -5 63 -11
67 -6 5 -6 8 1 8 6 0 11 7 11 15 0 8 -4 15 -9 15 -5 0 -6 5 -2 11 10 17 12
109 2 109 -5 0 -6 5 -2 12 10 16 11 108 1 108 -4 0 -5 5 -1 11 10 17 12 109 2
109 -5 0 -6 5 -2 12 10 16 11 108 1 108 -4 0 -5 5 -1 11 10 17 12 109 2 109
-5 0 -6 5 -2 12 10 16 11 108 1 108 -4 0 -5 5 -1 11 10 17 12 109 2 109 -5 0
-6 5 -2 12 10 16 11 188 1 188 -5 0 -5 5 -1 11 10 17 12 109 2 109 -5 0 -6 5
-2 12 4 7 7 69 7 138 l-1 127 1082 -2 c594 -1 1100 -5 1124 -9z"/>
</g>
</svg>
